<svg xmlns="http://www.w3.org/2000/svg" fill="none" viewBox="0 0 112 112">
  <path fill="#4338CA" d="M0 0h112v112H0V0Z" />
  <path fill="#fff" d="M19.89 88.48 16 80.57c1.96 0 3.49-.26 4.6-.77a4.5 4.5 0 0 0 2.35-2.55 13 13 0 0 0 .7-4.78V41.22h10.2v33.67c0 3.1-.52 5.66-1.59 7.66a9.97 9.97 0 0 1-4.72 4.46 17.94 17.94 0 0 1-7.65 1.47Zm9.06-53.96c-1.92 0-3.43-.44-4.53-1.34a4.99 4.99 0 0 1-1.6-3.95 4.8 4.8 0 0 1 1.66-3.76A6.5 6.5 0 0 1 28.95 24c1.91 0 3.4.47 4.46 1.4 1.06.9 1.6 2.17 1.6 3.83a4.9 4.9 0 0 1-1.66 3.83c-1.07.97-2.53 1.46-4.4 1.46Zm14.12 40.31V40.97h9.69l.32 6.12-1.34.06s1.15-2.08 1.91-2.93a13.33 13.33 0 0 1 5.8-3.44 12.7 12.7 0 0 1 3.32-.45c1.66 0 3.17.25 4.53.76a8.93 8.93 0 0 1 3.57 2.49 11.7 11.7 0 0 1 2.43 4.53l-1.6-.13.51-1.02a10.97 10.97 0 0 1 2.1-2.74c.9-.85 1.88-1.55 2.94-2.1a13.91 13.91 0 0 1 6.63-1.8c2.68 0 4.91.54 6.7 1.6a9.45 9.45 0 0 1 4.02 4.66c.93 2.08 1.4 4.61 1.4 7.59v20.66H85.73V55c0-1.36-.19-2.5-.57-3.38a3.95 3.95 0 0 0-1.72-1.98 4.96 4.96 0 0 0-2.75-.7 6.28 6.28 0 0 0-4.4 1.66 5.67 5.67 0 0 0-1.66 4.08v20.15H64.38v-19.9c0-1.27-.2-2.36-.58-3.25a4.3 4.3 0 0 0-1.72-2.04 5.03 5.03 0 0 0-2.68-.7A6.28 6.28 0 0 0 55 50.6a5.5 5.5 0 0 0-1.66 4.02v20.21H43.07Z" />
</svg>
